<svg id="Layer_1" data-name="Layer 1" xmlns="http://www.w3.org/2000/svg" viewBox="0 0 1920 370"><defs><style>.cls-1{fill:#091123;}.cls-2{fill:#35a8e0;}.cls-3{fill:#6d9caf;}.cls-4{fill:#9c9b9b;}</style></defs><path class="cls-1" d="M377.71,276.16l56.53-167.33h45.85l56.52,167.33H493.35L482.9,242H430.3l-10.45,34.16Zm96-64.51L456.6,156.48l-17.08,55.17Z"/><path class="cls-1" d="M694.51,276.16h-42V202h-57.2v74.17h-42V108.83h42v61.24h57.2V108.83h42Z"/><path class="cls-1" d="M900.05,276.16h-41.8V165.24l-30.46,71.59H799.14l-30.46-71.59V276.16H729.12V108.83h48.44l37.08,82.6,37-82.6h48.43Z"/><path class="cls-1" d="M1148,279.2q-19.21,0-33.77-3.71a173.17,173.17,0,0,1-27-9.22V226.49H1091a94,94,0,0,0,27.76,16.41,83.13,83.13,0,0,0,29.45,5.73,74.4,74.4,0,0,0,9.49-.79,33,33,0,0,0,9.5-2.47,20.79,20.79,0,0,0,7.41-5.34,13.11,13.11,0,0,0,3-9.05,12.45,12.45,0,0,0-5-10.22,31.55,31.55,0,0,0-11.8-5.73q-8.54-2.25-18.26-4.27a146.57,146.57,0,0,1-18.15-4.95Q1105,199,1096.6,187.38t-8.43-29q0-23.49,19.9-38t49.67-14.56a146.89,146.89,0,0,1,29.72,3,129.91,129.91,0,0,1,26.47,8.2v38.21h-3.71a83.63,83.63,0,0,0-22.76-13.49,72.09,72.09,0,0,0-27.59-5.5,56.85,56.85,0,0,0-9.89.78,38,38,0,0,0-9.21,3,18.61,18.61,0,0,0-6.8,5.34,12.28,12.28,0,0,0-2.87,7.92,12.5,12.5,0,0,0,4.56,10.17q4.54,3.76,17.58,6.8,8.43,1.9,16.24,3.71a154.78,154.78,0,0,1,16.69,4.94q17.41,6.3,25.9,16.92t8.49,28q0,25-19.61,40.12T1148,279.2Z"/><path class="cls-1" d="M1242,276.16V108.83h113.17v31.91h-71.36v29.33h65.74V202h-65.74v42.26h71.36v31.91Z"/><path class="cls-1" d="M1527,276.16h-40.46l-64.5-116.65V276.16h-38.44V108.83h51.59l53.38,95.86V108.83H1527Z"/><polygon class="cls-2" points="934.74 108.83 1065.43 108.83 1056.83 140.74 943.67 140.74 934.74 108.83"/><polygon class="cls-3" points="936.89 176.48 1063.28 176.48 1054.96 205.57 945.52 205.57 936.89 176.48"/><polygon class="cls-4" points="939.37 246.41 1061.13 246.41 1053.12 271.59 947.69 271.59 939.37 246.41"/></svg>